<?xml version="1.0" encoding="iso-8859-1"?>
<!-- Generator: Adobe Illustrator 19.0.0, SVG Export Plug-In . SVG Version: 6.00 Build 0)  -->
<svg version="1.1" id="Capa_1" xmlns="http://www.w3.org/2000/svg" xmlns:xlink="http://www.w3.org/1999/xlink" x="0px" y="0px"
	 viewBox="0 0 512 512" style="enable-background:new 0 0 512 512;" xml:space="preserve">
<g transform="translate(1 1)">
	<g>
		<path d="M510.95,401.172c-0.01-0.326-0.025-0.651-0.037-0.977c-0.028-0.737-0.063-1.472-0.105-2.205
			c-0.021-0.36-0.044-0.72-0.068-1.079c-0.051-0.743-0.111-1.484-0.178-2.223c-0.027-0.305-0.051-0.61-0.081-0.914
			c-0.024-0.24-0.048-0.479-0.073-0.718L494.114,99.62C490.966,43.165,444.278-1,387.736-1C326.574-1,277.97,50.373,281.358,111.435
			L282.223,127h-54.444l0.865-15.563C232.032,50.373,183.428-1,122.266-1C65.724-1,19.036,43.165,15.889,99.615L-0.402,393.018
			c-0.03,0.282-0.058,0.565-0.086,0.848c-0.019,0.194-0.034,0.389-0.052,0.584c-0.079,0.861-0.148,1.725-0.207,2.591
			c-0.018,0.27-0.035,0.541-0.051,0.812c-0.051,0.85-0.091,1.704-0.122,2.559c-0.008,0.221-0.018,0.441-0.025,0.663
			C-0.978,402.158-1,403.243-1,404.333C-1,463.241,46.759,511,105.667,511c58.634,0,106.216-47.319,106.656-105.849l5.973-107.484
			h73.411l5.97,107.434C298.09,463.654,345.683,511,404.333,511C463.241,511,511,463.241,511,404.333
			C511,403.275,510.98,402.222,510.95,401.172z M387.736,41.667c33.899,0,61.89,26.478,63.777,60.324l11.854,213.489
			c-0.138-0.092-0.28-0.177-0.418-0.268c-0.787-0.519-1.581-1.027-2.383-1.526c-0.202-0.126-0.402-0.253-0.605-0.378
			c-0.95-0.582-1.91-1.149-2.88-1.702c-0.213-0.122-0.429-0.239-0.643-0.359c-0.822-0.461-1.651-0.912-2.487-1.352
			c-0.225-0.119-0.449-0.239-0.675-0.356c-0.994-0.514-1.997-1.014-3.008-1.498c-0.206-0.098-0.413-0.192-0.62-0.289
			c-0.863-0.406-1.733-0.8-2.608-1.183c-0.244-0.107-0.487-0.215-0.732-0.32c-1.035-0.443-2.077-0.873-3.128-1.284
			c-0.196-0.077-0.395-0.149-0.591-0.225c-0.903-0.347-1.812-0.681-2.726-1.004c-0.263-0.093-0.525-0.187-0.788-0.278
			c-1.073-0.369-2.152-0.725-3.239-1.061c-0.179-0.055-0.36-0.106-0.54-0.161c-0.948-0.287-1.903-0.56-2.862-0.822
			c-0.277-0.076-0.553-0.152-0.831-0.225c-1.109-0.292-2.223-0.571-3.346-0.828c-0.155-0.035-0.311-0.067-0.466-0.101
			c-0.998-0.224-2.001-0.432-3.009-0.628c-0.291-0.056-0.582-0.113-0.873-0.167c-1.142-0.212-2.288-0.41-3.443-0.586
			c-0.12-0.018-0.241-0.033-0.362-0.051c-1.056-0.156-2.117-0.295-3.183-0.42c-0.3-0.035-0.6-0.07-0.9-0.103
			c-1.174-0.128-2.353-0.243-3.538-0.333c-0.069-0.005-0.139-0.008-0.208-0.013c-1.127-0.083-2.259-0.144-3.395-0.191
			c-0.307-0.013-0.614-0.025-0.922-0.035c-1.204-0.04-2.411-0.068-3.625-0.068c-1.499,0-2.989,0.039-4.473,0.1
			c-0.2,0.008-0.4,0.013-0.599,0.023c-1.409,0.066-2.809,0.163-4.203,0.283c-0.253,0.022-0.506,0.044-0.758,0.067
			c-1.381,0.129-2.754,0.282-4.119,0.463c-0.226,0.03-0.451,0.063-0.676,0.095c-1.406,0.196-2.806,0.412-4.194,0.662
			c-0.099,0.018-0.197,0.039-0.296,0.057c-1.373,0.251-2.736,0.53-4.089,0.833c-0.145,0.032-0.291,0.062-0.436,0.095
			c-1.349,0.308-2.686,0.647-4.015,1.005c-0.229,0.062-0.458,0.122-0.686,0.186c-1.297,0.359-2.585,0.743-3.862,1.15
			c-0.229,0.073-0.457,0.148-0.685,0.223c-1.294,0.422-2.58,0.864-3.852,1.334c-0.151,0.056-0.3,0.115-0.45,0.171
			c-1.286,0.481-2.561,0.984-3.823,1.513c-0.069,0.029-0.139,0.056-0.208,0.085c-1.275,0.538-2.534,1.105-3.782,1.691
			c-0.192,0.09-0.385,0.178-0.577,0.269c-1.199,0.571-2.385,1.165-3.56,1.779c-0.215,0.113-0.43,0.226-0.644,0.34
			c-1.173,0.623-2.334,1.265-3.48,1.931c-0.172,0.1-0.341,0.202-0.512,0.303c-1.195,0.703-2.379,1.422-3.543,2.169
			c-0.026,0.016-0.05,0.034-0.076,0.05c-1.157,0.744-2.295,1.513-3.42,2.3c-0.146,0.102-0.294,0.202-0.44,0.305
			c-1.084,0.765-2.15,1.553-3.203,2.357c-0.191,0.145-0.381,0.291-0.57,0.437c-1.036,0.802-2.058,1.622-3.064,2.462
			c-0.07,0.058-0.143,0.113-0.213,0.171l-7.798-140.341l-1.947-35.083c-0.001-0.016-0.004-0.032-0.005-0.049l-2.113-38.033
			C321.928,72.465,351.067,41.667,387.736,41.667z M58.489,101.985c1.887-33.84,29.878-60.319,63.777-60.319
			c36.669,0,65.808,30.799,63.777,67.405l-2.101,37.813c-0.006,0.09-0.023,0.176-0.028,0.267l-7.104,128
			c-0.003,0.055-0.002,0.11-0.005,0.165l-2.626,47.259c-0.084-0.07-0.172-0.136-0.256-0.206c-0.977-0.815-1.97-1.612-2.977-2.392
			c-0.221-0.172-0.444-0.341-0.667-0.511c-1.025-0.782-2.063-1.549-3.117-2.294c-0.18-0.127-0.362-0.25-0.543-0.376
			c-1.071-0.747-2.153-1.478-3.252-2.187c-0.069-0.044-0.136-0.091-0.206-0.135c-1.135-0.728-2.289-1.429-3.453-2.114
			c-0.202-0.119-0.402-0.24-0.605-0.358c-1.122-0.651-2.259-1.279-3.406-1.89c-0.241-0.128-0.482-0.256-0.724-0.382
			c-1.152-0.602-2.315-1.185-3.491-1.745c-0.218-0.104-0.437-0.204-0.656-0.306c-1.226-0.574-2.461-1.131-3.711-1.659
			c-0.098-0.041-0.198-0.08-0.296-0.121c-1.223-0.512-2.46-1-3.706-1.467c-0.175-0.066-0.348-0.134-0.524-0.199
			c-1.254-0.463-2.521-0.898-3.797-1.314c-0.248-0.081-0.495-0.162-0.743-0.241c-1.262-0.402-2.533-0.781-3.815-1.136
			c-0.244-0.068-0.49-0.133-0.735-0.199c-1.315-0.355-2.638-0.69-3.973-0.995c-0.16-0.037-0.322-0.069-0.482-0.105
			c-1.332-0.298-2.674-0.573-4.024-0.82c-0.114-0.021-0.227-0.045-0.34-0.065c-1.379-0.248-2.769-0.463-4.166-0.658
			c-0.234-0.033-0.468-0.067-0.703-0.098c-1.359-0.18-2.726-0.333-4.101-0.461c-0.258-0.024-0.517-0.047-0.775-0.069
			c-1.39-0.12-2.786-0.216-4.191-0.282c-0.202-0.009-0.405-0.015-0.607-0.023c-1.481-0.061-2.968-0.1-4.465-0.1
			c-0.001,0-0.002,0-0.003,0c0,0-0.001,0-0.001,0c0,0-0.001,0-0.001,0c-1.215,0-2.422,0.028-3.627,0.068
			c-0.305,0.01-0.609,0.022-0.913,0.035c-1.144,0.048-2.285,0.109-3.419,0.193c-0.061,0.005-0.123,0.007-0.184,0.012
			c-1.191,0.09-2.375,0.206-3.555,0.334c-0.292,0.032-0.583,0.066-0.874,0.1c-1.083,0.127-2.161,0.267-3.234,0.427
			c-0.104,0.016-0.21,0.028-0.314,0.044c-1.164,0.177-2.32,0.377-3.472,0.591c-0.277,0.051-0.553,0.105-0.83,0.159
			c-1.034,0.2-2.063,0.414-3.085,0.644c-0.133,0.03-0.266,0.056-0.399,0.087c-1.136,0.26-2.264,0.542-3.386,0.838
			c-0.258,0.068-0.515,0.139-0.773,0.209c-0.992,0.27-1.979,0.552-2.959,0.85c-0.151,0.046-0.304,0.089-0.455,0.135
			c-1.105,0.341-2.201,0.702-3.291,1.077c-0.239,0.082-0.476,0.167-0.713,0.251c-0.953,0.336-1.901,0.685-2.842,1.047
			c-0.164,0.063-0.33,0.124-0.494,0.188c-1.072,0.419-2.135,0.857-3.19,1.309c-0.214,0.092-0.426,0.186-0.639,0.28
			c-0.92,0.402-1.833,0.816-2.74,1.242c-0.171,0.081-0.344,0.159-0.515,0.241c-1.035,0.494-2.06,1.005-3.077,1.532
			c-0.191,0.099-0.38,0.201-0.57,0.301c-0.885,0.465-1.762,0.942-2.632,1.431c-0.176,0.099-0.354,0.196-0.529,0.296
			c-0.996,0.567-1.981,1.15-2.957,1.748c-0.161,0.099-0.321,0.201-0.482,0.301c-0.856,0.531-1.703,1.074-2.543,1.628
			c-0.113,0.074-0.229,0.144-0.341,0.218L58.489,101.985z M105.667,468.333c-35.198,0-63.755-28.424-63.989-63.567l0.438-7.894
			c3.699-31.826,30.735-56.538,63.552-56.539c35.343,0.001,63.999,28.657,63.999,64C169.667,439.677,141.01,468.333,105.667,468.333
			z M289.331,255h-68.664l4.742-85.333h59.186l0.849,15.278L289.331,255z M404.333,468.333c-35.343,0-64-28.657-64-64
			s28.657-64,64-64c32.818,0,59.854,24.712,63.553,56.538l0.437,7.869C468.103,439.895,439.54,468.333,404.333,468.333z"/>
	</g>
</g>
<g>
</g>
<g>
</g>
<g>
</g>
<g>
</g>
<g>
</g>
<g>
</g>
<g>
</g>
<g>
</g>
<g>
</g>
<g>
</g>
<g>
</g>
<g>
</g>
<g>
</g>
<g>
</g>
<g>
</g>
</svg>
