<?xml version="1.0" encoding="iso-8859-1"?>
<!-- Generator: Adobe Illustrator 19.0.0, SVG Export Plug-In . SVG Version: 6.00 Build 0)  -->
<svg version="1.1" id="Capa_1" xmlns="http://www.w3.org/2000/svg" xmlns:xlink="http://www.w3.org/1999/xlink" x="0px" y="0px"
	 viewBox="0 0 512 512" style="enable-background:new 0 0 512 512;" xml:space="preserve">
<g transform="translate(1 1)">
	<g>
		<g>
			<path d="M489.667,52.333h-24.987c-8.784-24.858-32.474-42.667-60.346-42.667c-27.872,0-51.562,17.808-60.346,42.667h-28.641
				C306.562,27.475,282.872,9.667,255,9.667s-51.562,17.808-60.346,42.667h-28.641c-8.784-24.858-32.474-42.667-60.346-42.667
				S54.105,27.475,45.321,52.333H20.333C8.551,52.333-1,61.885-1,73.667v106.667V479c0,11.782,9.551,21.333,21.333,21.333h469.333
				c11.782,0,21.333-9.551,21.333-21.333V180.333V73.667C511,61.885,501.449,52.333,489.667,52.333z M41.667,95H63
				c11.782,0,21.333-9.551,21.333-21.333c0-11.791,9.542-21.333,21.333-21.333S127,61.875,127,73.667S117.458,95,105.667,95
				c-11.782,0-21.333,9.551-21.333,21.333c0,11.782,9.551,21.333,21.333,21.333c27.872,0,51.562-17.808,60.346-42.667h46.32
				c11.782,0,21.333-9.551,21.333-21.333c0-11.791,9.542-21.333,21.333-21.333s21.333,9.542,21.333,21.333S266.791,95,255,95
				c-11.782,0-21.333,9.551-21.333,21.333c0,11.782,9.551,21.333,21.333,21.333c27.872,0,51.562-17.808,60.346-42.667h46.321
				C373.449,95,383,85.449,383,73.667c0-11.791,9.542-21.333,21.333-21.333s21.333,9.542,21.333,21.333S416.125,95,404.333,95
				C392.551,95,383,104.551,383,116.333c0,11.782,9.551,21.333,21.333,21.333c27.872,0,51.562-17.808,60.346-42.667h3.654v64H41.667
				V95z M41.667,457.667v-256h426.667v256H41.667z"/>
			<path d="M127,265.667c-11.776,0-21.333,9.557-21.333,21.333s9.557,21.333,21.333,21.333s21.333-9.557,21.333-21.333
				S138.776,265.667,127,265.667z"/>
			<path d="M255,265.667c-11.776,0-21.333,9.557-21.333,21.333s9.557,21.333,21.333,21.333s21.333-9.557,21.333-21.333
				S266.776,265.667,255,265.667z"/>
			<path d="M383,265.667c-11.776,0-21.333,9.557-21.333,21.333s9.557,21.333,21.333,21.333s21.333-9.557,21.333-21.333
				S394.776,265.667,383,265.667z"/>
			<path d="M127,372.333c-11.776,0-21.333,9.557-21.333,21.333S115.224,415,127,415s21.333-9.557,21.333-21.333
				S138.776,372.333,127,372.333z"/>
			<path d="M255,372.333c-11.776,0-21.333,9.557-21.333,21.333S243.224,415,255,415s21.333-9.557,21.333-21.333
				S266.776,372.333,255,372.333z"/>
			<path d="M383,372.333c-11.776,0-21.333,9.557-21.333,21.333S371.224,415,383,415s21.333-9.557,21.333-21.333
				S394.776,372.333,383,372.333z"/>
		</g>
	</g>
</g>
<g>
</g>
<g>
</g>
<g>
</g>
<g>
</g>
<g>
</g>
<g>
</g>
<g>
</g>
<g>
</g>
<g>
</g>
<g>
</g>
<g>
</g>
<g>
</g>
<g>
</g>
<g>
</g>
<g>
</g>
</svg>
