<?xml version="1.0" encoding="iso-8859-1"?>
<!-- Generator: Adobe Illustrator 19.0.0, SVG Export Plug-In . SVG Version: 6.00 Build 0)  -->
<svg version="1.1" id="Capa_1" xmlns="http://www.w3.org/2000/svg" xmlns:xlink="http://www.w3.org/1999/xlink" x="0px" y="0px"
	 viewBox="0 0 512 512" style="enable-background:new 0 0 512 512;" xml:space="preserve">
<g transform="translate(1 1)">
	<g>
		<g>
			<path d="M105.667,343.021V20.333C105.667,8.551,96.115-1,84.333-1C72.551-1,63,8.551,63,20.333v322.688
				c-36.807,9.472-64,42.88-64,82.645C-1,472.798,37.202,511,84.333,511s85.333-38.202,85.333-85.333
				C169.667,385.902,142.473,352.493,105.667,343.021z M84.333,468.333c-23.567,0-42.667-19.099-42.667-42.667
				S60.766,383,84.333,383S127,402.099,127,425.667S107.901,468.333,84.333,468.333z"/>
			<path d="M511,84.333C511,37.202,472.798-1,425.667-1s-85.333,38.202-85.333,85.333c0,39.765,27.193,73.173,64,82.645v322.688
				c0,11.782,9.551,21.333,21.333,21.333S447,501.449,447,489.667V166.979C483.807,157.507,511,124.098,511,84.333z M425.667,127
				C402.099,127,383,107.901,383,84.333s19.099-42.667,42.667-42.667s42.667,19.099,42.667,42.667S449.234,127,425.667,127z"/>
			<path d="M276.333,172.355V20.333C276.333,8.551,266.782-1,255-1s-21.333,9.551-21.333,21.333v152.021
				c-36.807,9.472-64,42.88-64,82.645s27.193,73.173,64,82.645v152.021c0,11.782,9.551,21.333,21.333,21.333
				s21.333-9.551,21.333-21.333V337.645c36.807-9.472,64-42.88,64-82.645S313.14,181.827,276.333,172.355z M255,297.667
				c-23.567,0-42.667-19.099-42.667-42.667s19.099-42.667,42.667-42.667s42.667,19.099,42.667,42.667S278.567,297.667,255,297.667z"
				/>
		</g>
	</g>
</g>
<g>
</g>
<g>
</g>
<g>
</g>
<g>
</g>
<g>
</g>
<g>
</g>
<g>
</g>
<g>
</g>
<g>
</g>
<g>
</g>
<g>
</g>
<g>
</g>
<g>
</g>
<g>
</g>
<g>
</g>
</svg>
