<?xml version="1.0" encoding="iso-8859-1"?>
<!-- Generator: Adobe Illustrator 19.0.0, SVG Export Plug-In . SVG Version: 6.00 Build 0)  -->
<svg version="1.1" id="Capa_1" xmlns="http://www.w3.org/2000/svg" xmlns:xlink="http://www.w3.org/1999/xlink" x="0px" y="0px"
	 viewBox="0 0 512 512" style="enable-background:new 0 0 512 512;" xml:space="preserve">
<g transform="translate(1 1)">
	<g>
		<g>
			<path d="M255-1C160.743-1,84.333,75.41,84.333,169.667c0,61.792,33.216,117.521,85.333,147.631v44.369V447
				c0,11.782,9.551,21.333,21.333,21.333v21.333c0,11.782,9.551,21.333,21.333,21.333h85.333c11.782,0,21.333-9.551,21.333-21.333
				v-21.333c11.782,0,21.333-9.551,21.333-21.333v-85.333v-44.369c52.118-30.11,85.333-85.84,85.333-147.631
				C425.667,75.41,349.257-1,255-1z M297.667,425.667c-11.782,0-21.333,9.551-21.333,21.333v21.333h-42.667V447
				c0-11.782-9.551-21.333-21.333-21.333V383h85.333V425.667z M309.836,285.164c-7.434,3.536-12.17,11.033-12.17,19.265v35.904
				h-85.333v-35.904c0-8.232-4.736-15.729-12.17-19.265C155.814,264.069,127,219.501,127,169.667c0-70.693,57.307-128,128-128
				s128,57.307,128,128C383,219.501,354.186,264.069,309.836,285.164z"/>
			<path d="M255,84.333c-47.131,0-85.333,38.202-85.333,85.333c0,11.782,9.551,21.333,21.333,21.333
				c11.782,0,21.333-9.551,21.333-21.333C212.333,146.099,231.433,127,255,127c11.782,0,21.333-9.551,21.333-21.333
				C276.333,93.885,266.782,84.333,255,84.333z"/>
			<path d="M489.667,148.333h-21.333c-11.782,0-21.333,9.551-21.333,21.333c0,11.782,9.551,21.333,21.333,21.333h21.333
				c11.782,0,21.333-9.551,21.333-21.333C511,157.885,501.449,148.333,489.667,148.333z"/>
			<path d="M63,169.667c0-11.782-9.551-21.333-21.333-21.333H20.333C8.551,148.333-1,157.885-1,169.667
				C-1,181.449,8.551,191,20.333,191h21.333C53.449,191,63,181.449,63,169.667z"/>
			<path d="M447.493,75.23l18.112-11.264c10.005-6.222,13.072-19.377,6.849-29.382c-6.222-10.005-19.377-13.072-29.382-6.849
				L424.96,38.998c-10.005,6.222-13.072,19.377-6.849,29.382C424.333,78.386,437.488,81.452,447.493,75.23z"/>
			<path d="M62.496,264.095l-18.112,11.264c-10.005,6.222-13.072,19.377-6.849,29.382c6.222,10.005,19.377,13.072,29.382,6.849
				l18.112-11.264c10.005-6.222,13.072-19.377,6.849-29.382S72.501,257.873,62.496,264.095z"/>
			<path d="M466.714,273.078l-18.24-11.051c-10.077-6.105-23.195-2.885-29.3,7.192c-6.105,10.077-2.885,23.195,7.192,29.3
				l18.24,11.051c10.077,6.105,23.195,2.885,29.3-7.192S476.79,279.183,466.714,273.078z"/>
			<path d="M43.284,66.244l18.24,11.051c10.077,6.105,23.195,2.885,29.3-7.192s2.885-23.195-7.192-29.3l-18.24-11.051
				c-10.077-6.105-23.195-2.885-29.3,7.192S33.207,60.139,43.284,66.244z"/>
		</g>
	</g>
</g>
<g>
</g>
<g>
</g>
<g>
</g>
<g>
</g>
<g>
</g>
<g>
</g>
<g>
</g>
<g>
</g>
<g>
</g>
<g>
</g>
<g>
</g>
<g>
</g>
<g>
</g>
<g>
</g>
<g>
</g>
</svg>
