<?xml version="1.0" encoding="iso-8859-1"?>
<!-- Generator: Adobe Illustrator 19.0.0, SVG Export Plug-In . SVG Version: 6.00 Build 0)  -->
<svg version="1.1" id="Capa_1" xmlns="http://www.w3.org/2000/svg" xmlns:xlink="http://www.w3.org/1999/xlink" x="0px" y="0px"
	 viewBox="0 0 512.002 512.002" style="enable-background:new 0 0 512.002 512.002;" xml:space="preserve">
<g transform="translate(1 1)">
	<g>
		<g>
			<path d="M255.001,126.997c11.776,0,21.333-9.557,21.333-21.333s-9.557-21.333-21.333-21.333s-21.333,9.557-21.333,21.333
				S243.225,126.997,255.001,126.997z"/>
			<path d="M510.947,488.143l-21.333-298.667c-0.797-11.164-10.087-19.813-21.279-19.813h-85.333
				c-11.782,0-21.333,9.551-21.333,21.333c0,11.782,9.551,21.333,21.333,21.333h65.469l18.286,256H43.246l18.286-256h65.469
				c11.782,0,21.333-9.551,21.333-21.333c0-11.782-9.551-21.333-21.333-21.333H41.668c-11.192,0-20.482,8.65-21.279,19.813
				L-0.945,488.143c-0.882,12.349,8.898,22.853,21.279,22.853h469.333C502.048,510.997,511.829,500.493,510.947,488.143z"/>
			<path d="M162.889,159.21c9.115,17.805,13.017,26.065,16.665,36.095l55.803,132.004c4.019,9.501,13.204,13.79,21.903,12.894
				c1.039,0.193,2.095,0.336,3.183,0.374c4.629,0.149,9.088,0.213,13.419,0.213c11.221,0,21.973-0.491,31.979-1.493
				c11.712-1.173,20.288-11.605,19.115-23.339c-1.173-11.733-11.669-20.309-23.339-19.115c-4.651,0.455-9.491,0.788-14.517,1.002
				l43.195-102.258c4.029-10.979,7.908-19.134,17.336-37.408c1.209-2.343,1.209-2.343,2.428-4.713
				c12.482-24.315,15.183-52.174,6.741-79.894c-10.907-35.757-40.902-63.651-77.319-71.836
				c-68.155-15.311-131.142,35.711-131.142,103.929c0,16.7,3.971,32.82,11.462,47.5C161.183,155.876,161.183,155.876,162.889,159.21
				z M270.127,43.365c21.427,4.816,39.426,21.554,45.86,42.647c5.176,16.996,3.584,33.419-3.885,47.968
				c-1.187,2.307-1.187,2.307-2.63,5.105c-10.006,19.395-14.417,28.667-18.874,40.898l-35.601,84.235l-35.747-84.515
				c-4.048-11.211-8.472-20.576-18.382-39.935l-0.324-0.634c-1.374-2.683-1.374-2.683-2.727-5.339
				c-4.475-8.769-6.811-18.255-6.811-28.129C191.005,64.661,228.766,34.074,270.127,43.365z"/>
			<path d="M124.273,364.876c-10.667-4.864-23.381-0.149-28.245,10.581c-11.136,24.427-11.691,46.101-11.691,50.197
				c0,11.797,9.536,21.333,21.333,21.333c11.797,0,21.333-9.536,21.333-21.333c0-0.619,0.085-15.467,7.851-32.512
				C139.739,382.434,135.003,369.762,124.273,364.876z"/>
			<path d="M157.766,359.095c3.627,0,7.317-0.939,10.688-2.88c9.579-5.568,20.843-9.749,33.451-12.437
				c11.541-2.453,18.859-13.781,16.427-25.301c-2.475-11.541-13.824-18.901-25.301-16.427c-17.024,3.627-32.512,9.429-45.995,17.259
				c-10.176,5.909-13.653,18.965-7.744,29.141C143.259,355.276,150.427,359.095,157.766,359.095z"/>
			<path d="M346.182,311.436c3.819,7.275,11.243,11.435,18.923,11.435c3.328,0,6.72-0.789,9.899-2.432
				c17.259-9.067,30.635-20.928,39.765-35.221c6.315-9.941,3.392-23.125-6.549-29.461c-9.877-6.315-23.104-3.392-29.44,6.528
				c-5.077,7.957-13.013,14.805-23.616,20.352C344.731,288.119,340.699,301.026,346.182,311.436z"/>
		</g>
	</g>
</g>
<g>
</g>
<g>
</g>
<g>
</g>
<g>
</g>
<g>
</g>
<g>
</g>
<g>
</g>
<g>
</g>
<g>
</g>
<g>
</g>
<g>
</g>
<g>
</g>
<g>
</g>
<g>
</g>
<g>
</g>
</svg>
