<?xml version="1.0" encoding="iso-8859-1"?>
<!-- Generator: Adobe Illustrator 19.0.0, SVG Export Plug-In . SVG Version: 6.00 Build 0)  -->
<!-- https://www.flaticon.com/packs/essentials-12/2?k=1615178001638 -->
<svg version="1.1" id="Capa_1" xmlns="http://www.w3.org/2000/svg" xmlns:xlink="http://www.w3.org/1999/xlink" x="0px" y="0px"
	 viewBox="0 0 512 512" style="enable-background:new 0 0 512 512;" xml:space="preserve">
<g transform="translate(1 1)">
	<g>
		<g>
			<path d="M493.701,211.481l-28.245-5.44c-26.524-5.091-38.686-36.072-22.715-57.848l17.728-24.17
				c6.228-8.491,5.329-20.256-2.117-27.702l-38.293-38.293c-7.233-7.233-18.581-8.314-27.05-2.577l-23.808,16.128
				c-22.352,15.131-52.859,1.819-56.978-24.867L307.682,17.1C306.085,6.688,297.128-1,286.595-1h-54.165
				c-10.232,0-19.022,7.264-20.951,17.312l-6.997,36.459c-4.995,25.931-34.876,38.311-56.751,23.498l-30.74-20.82
				c-8.468-5.736-19.816-4.654-27.048,2.578L51.648,96.32c-7.446,7.446-8.345,19.211-2.117,27.702l17.728,24.171
				c15.971,21.776,3.809,52.756-22.702,57.845l-28.258,5.442C6.257,213.415-1,222.203-1,232.429v54.144
				c0,10.528,7.68,19.482,18.085,21.085l29.632,4.565c26.699,4.105,40.01,34.618,24.862,56.976L55.45,393.009
				c-5.737,8.468-4.655,19.817,2.577,27.05l38.293,38.293c7.446,7.446,19.211,8.345,27.702,2.117l24.171-17.728
				c21.776-15.971,52.764-3.809,57.869,22.712l5.416,28.233C213.406,503.735,222.197,511,232.429,511h54.165
				c10.532,0,19.488-7.686,21.086-18.096l3.2-20.843c4.199-27.285,35.833-40.394,58.097-24.07l16.993,12.473
				c8.491,6.233,20.26,5.335,27.708-2.113l38.293-38.293c7.233-7.233,8.314-18.581,2.577-27.05l-16.128-23.808
				c-15.149-22.359-1.838-52.872,24.855-56.976l29.638-4.566C503.32,306.055,511,297.101,511,286.573v-54.144
				C511,222.203,503.743,213.415,493.701,211.481z M468.333,268.275l-11.547,1.779c-57.654,8.865-86.411,74.78-53.688,123.077
				l6.244,9.217l-12.886,12.886l-2.242-1.646c-48.101-35.266-116.436-6.949-125.506,51.99l-0.423,2.754h-18.228l-2.097-10.931
				c-11.027-57.294-77.962-83.566-125.003-49.066l-9.412,6.903l-12.89-12.89l6.245-9.219
				c32.722-48.296,3.966-114.211-53.695-123.077l-11.541-1.778v-18.229l10.947-2.108c57.275-10.994,83.553-77.935,49.051-124.978
				l-6.903-9.412l12.891-12.891l16.152,10.94c47.243,31.991,111.785,5.253,122.576-50.77l3.677-19.16h18.226l1.768,11.532
				c8.899,57.651,74.781,86.398,123.072,53.707l9.225-6.249l12.89,12.89l-6.903,9.411c-34.503,47.044-8.225,113.984,49.063,124.981
				l10.934,2.106V268.275z"/>
			<path d="M255,148.327c-58.907,0-106.667,47.759-106.667,106.667S196.093,361.66,255,361.66s106.667-47.759,106.667-106.667
				S313.907,148.327,255,148.327z M255,318.994c-35.343,0-64-28.657-64-64s28.657-64,64-64s64,28.657,64,64
				S290.343,318.994,255,318.994z"/>
		</g>
	</g>
</g>
<g>
</g>
<g>
</g>
<g>
</g>
<g>
</g>
<g>
</g>
<g>
</g>
<g>
</g>
<g>
</g>
<g>
</g>
<g>
</g>
<g>
</g>
<g>
</g>
<g>
</g>
<g>
</g>
<g>
</g>
</svg>
