<?xml version="1.0" encoding="iso-8859-1"?>
<!-- Generator: Adobe Illustrator 19.0.0, SVG Export Plug-In . SVG Version: 6.00 Build 0)  -->
<svg version="1.1" id="Capa_1" xmlns="http://www.w3.org/2000/svg" xmlns:xlink="http://www.w3.org/1999/xlink" x="0px" y="0px"
	 viewBox="0 0 511.989 511.989" style="enable-background:new 0 0 511.989 511.989;" xml:space="preserve">
<g>
	<g>
		<path d="M418.406,342.014l-3.715-1.204l-73.363-16.537v-37.379c26.819-24.007,42.667-58.108,42.667-94.894v-74.219
			C383.995,52.73,331.265,0,266.213,0h-20.437c-65.051,0-117.781,52.73-117.781,117.781V192c0,36.786,15.847,70.887,42.667,94.894
			v37.379L97.298,340.81l-3.715,1.204c-30.883,13.24-50.922,43.629-50.922,77.229v43.989c0,9.76,6.623,18.275,16.083,20.677
			l35.285,8.96c106.01,25.484,217.148,25.478,323.631,0.074l35.585-9.034c9.46-2.402,16.083-10.917,16.083-20.677v-43.989
			C469.328,385.643,449.289,355.254,418.406,342.014z M426.661,446.639l-19.203,4.876c-99.662,23.775-203.991,23.78-303.193-0.065
			l-18.938-4.81v-27.397c0-15.944,9.179-30.431,23.465-37.286l87.893-19.812c9.731-2.193,16.642-10.836,16.642-20.811v-64.491
			c0-6.691-3.139-12.994-8.479-17.026c-21.421-16.172-34.187-40.919-34.187-67.817v-74.219c0-41.487,33.627-75.115,75.115-75.115
			h20.437c41.487,0,75.115,33.627,75.115,75.115V192c0,26.898-12.767,51.645-34.187,67.817c-5.34,4.032-8.479,10.335-8.479,17.026
			v64.491c0,9.975,6.912,18.618,16.642,20.811l87.893,19.812c14.286,6.855,23.465,21.342,23.465,37.286V446.639z"/>
	</g>
</g>
<g>
</g>
<g>
</g>
<g>
</g>
<g>
</g>
<g>
</g>
<g>
</g>
<g>
</g>
<g>
</g>
<g>
</g>
<g>
</g>
<g>
</g>
<g>
</g>
<g>
</g>
<g>
</g>
<g>
</g>
</svg>
